<?xml version="1.0" standalone="no"?>
<!DOCTYPE svg PUBLIC "-//W3C//DTD SVG 20010904//EN"
 "http://www.w3.org/TR/2001/REC-SVG-20010904/DTD/svg10.dtd">
<svg version="1.0" xmlns="http://www.w3.org/2000/svg"
 width="904.000000pt" height="904.000000pt" viewBox="0 0 904.000000 904.000000"
 preserveAspectRatio="xMidYMid meet">
<metadata>
Created by potrace 1.14, written by Peter Selinger 2001-2017
</metadata>
<g transform="translate(0.000000,904.000000) scale(0.100000,-0.100000)"
fill="#000000" stroke="none">
<path d="M4150 9034 c-19 -2 -87 -9 -150 -15 -696 -66 -1443 -334 -2032 -730
-1003 -674 -1689 -1749 -1887 -2959 -53 -327 -56 -366 -56 -820 1 -454 4 -496
61 -835 127 -755 467 -1496 957 -2089 116 -140 410 -437 542 -547 612 -512
1344 -848 2130 -978 308 -52 371 -56 805 -56 433 0 487 4 805 56 1211 199
2279 888 2952 1904 345 520 580 1122 682 1743 50 305 56 388 56 812 0 424 -6
507 -56 812 -185 1132 -796 2145 -1704 2828 -540 406 -1191 688 -1870 809
-314 57 -390 63 -810 66 -214 2 -406 1 -425 -1z m911 -434 c215 -17 632 -80
652 -99 4 -4 -26 -15 -65 -25 -570 -144 -1198 -462 -1646 -833 -334 -276 -567
-534 -796 -878 -244 -367 -386 -670 -511 -1085 -186 -624 -211 -1380 -66
-2042 261 -1196 1074 -2209 2210 -2755 254 -122 599 -249 824 -304 54 -13 92
-26 85 -30 -36 -20 -355 -70 -633 -101 -157 -17 -739 -17 -895 0 -690 76
-1183 221 -1728 507 -960 503 -1666 1342 -1981 2354 -236 754 -240 1634 -12
2387 418 1379 1544 2417 3013 2778 243 60 583 113 823 129 124 8 604 6 726 -3z"/>
</g>
</svg>
