<svg xmlns="http://www.w3.org/2000/svg" viewBox="0 0 76.13 55.46"><g id="f2b807d7-f056-4440-b109-c8ad38353d80" data-name="Layer 2"><g id="e33f443f-dfb9-4a9c-a2f8-87f93468aebc" data-name="Color"><g id="bd208520-5dee-4e04-98a6-b3a7af34fc74" data-name="Vertical_Color"><g id="a0c8cefa-4884-4f13-a1ff-a35eba58447c" data-name="AstroRing_Color"><g id="bf79d06c-48d5-44e4-8723-834b7c6b13c2" data-name="Aquarius"><path d="M48.21,55.46a3.85,3.85,0,0,1-2.72-1.06l-.14-.18a30,30,0,0,1-2.78-6c-.25-.65-.5-1.3-.76-1.95l-.45.33c-1.7,1.17-3.37,2.42-5,3.62C35,51.29,33.51,52.38,32,53.41c-2.09,1.71-5.41,2.44-7.61.42l-.11-.11a22.08,22.08,0,0,1-3-5.75c-.31-.77-.61-1.51-.93-2.22-2.4,1.51-4.77,3-7.15,4.57l-4.4,2.82-.17.09A5,5,0,0,0,7.54,54,6,6,0,0,1,5.74,55l-.14,0c-1.93.34-2.83-1.39-3.37-2.42-.12-.22-.23-.44-.35-.63C-.19,49.52-.58,47,.84,45.19L1.05,45c4.73-3.3,9.68-6.42,14.47-9.44q2.82-1.79,5.63-3.58a3.39,3.39,0,0,1,2.3-1,3,3,0,0,1,2.32.86l.11.12a31.29,31.29,0,0,1,3.39,6.41c.35.79.7,1.59,1.07,2.38l5.76-4.15q2.59-1.89,5.21-3.76c1.56-1.56,4.17-2.37,6-.82l.14.15a24.26,24.26,0,0,1,3.36,6.66c.21.57.43,1.15.66,1.72,1.58-1.1,3.26-2.3,5.09-3.64,1-.65,1.94-1.37,2.85-2.05.72-.55,1.45-1.1,2.2-1.63a22.08,22.08,0,0,1,2.82-1.72l.45-.27a4.14,4.14,0,0,1,2.2-.82l.12,0a2.13,2.13,0,0,1,1.71,1.74l.12.32c.29.61.57,1.22.84,1.84.5,1.12,1,2.35,1.62,3.85.43,1.05.84,2.1,1.26,3.15l.28.71c.14.36.27.77.41,1.19a9,9,0,0,0,.9,2.17A4.76,4.76,0,0,1,75.15,49a4.17,4.17,0,0,1-1.73,2.73l-.11.07-.57.3c-1.76.94-4.17,2.24-6.43.84l-.18-.14a14.25,14.25,0,0,1-3-5.44c-.13-.35-.25-.69-.38-1C61,47.51,59.23,48.78,57.53,50S54,52.56,52.26,53.78A6.35,6.35,0,0,1,48.21,55.46ZM47,53c1.18,1,3.09.08,4-.77l.1-.08c1.77-1.21,3.55-2.51,5.27-3.76,2-1.49,4.16-3,6.28-4.45l1-.66.49,1.08c.33.73.62,1.5.9,2.24a12.73,12.73,0,0,0,2.45,4.63c1.17.65,2.55,0,4.35-1l.53-.29a2.18,2.18,0,0,0,.85-1.4,2.81,2.81,0,0,0-.45-2.08,10.27,10.27,0,0,1-1.18-2.71c-.12-.37-.24-.74-.36-1.06L70.91,42c-.42-1-.83-2.09-1.25-3.13-.6-1.48-1.11-2.69-1.6-3.79-.26-.6-.54-1.2-.82-1.79-.08-.17-.14-.36-.21-.56a2.6,2.6,0,0,0-.13-.36,5.16,5.16,0,0,0-1,.51c-.22.13-.43.26-.6.34a23.79,23.79,0,0,0-2.58,1.58c-.73.51-1.43,1-2.14,1.58-.93.71-1.9,1.44-2.91,2.11-2.21,1.6-4.21,3-6.1,4.34l-1,.69-.49-1.1c-.44-1-.82-2-1.19-3a22.39,22.39,0,0,0-3-6c-1-.75-2.52,0-3.29.8l-.13.12c-1.77,1.26-3.52,2.53-5.28,3.8L30.54,43l-.94.67-.53-1c-.6-1.15-1.12-2.36-1.63-3.53a30.46,30.46,0,0,0-3.11-6,1.22,1.22,0,0,0-.79-.25,1.37,1.37,0,0,0-1,.47l-.22.19-5.76,3.65c-4.72,3-9.6,6.06-14.25,9.29-1,1.47.6,3.62,1.13,4.26l.06.09a9.21,9.21,0,0,1,.48.85c.56,1.07.83,1.4,1.19,1.38a4.7,4.7,0,0,0,1.12-.74,7.57,7.57,0,0,1,1.53-1l4.31-2.77q4-2.61,8.11-5.18l.92-.58.5,1a35.83,35.83,0,0,1,1.49,3.38,20.41,20.41,0,0,0,2.66,5.18c1.36,1.17,3.57.58,5-.58s3-2.14,4.35-3.19c1.63-1.22,3.31-2.48,5-3.65a13.23,13.23,0,0,1,1.61-1.06l.94-.49.44,1c.45,1,.86,2.09,1.25,3.12A29.38,29.38,0,0,0,47,53Zm-.38-24.25-.49-1.22-1.77-4.36c-.84-2.08-1.68-4.17-2.54-6.26l-4.55,3.29c-1.88,1.37-3.76,2.73-5.66,4.08-2.25,2-4.6,2.45-6.29,1.18l-.17-.16a26.39,26.39,0,0,1-3.77-6.82c-.31-.7-.62-1.42-.94-2.12q-2.88,1.83-5.73,3.67a28.7,28.7,0,0,0-2.79,1.78,18.08,18.08,0,0,1-5.23,2.83c-2.19.83-4.29-.77-5.4-2.77a4.76,4.76,0,0,1,.47-6.48l.09-.08C6.3,11.92,11.16,8.89,15.85,6c2.62-1.64,5.34-3.34,8-5.08L25.18,0l2,4.34,3.19,7c2.26-1.61,4.5-3.24,6.75-4.86L40.93,3.7c1.65-1.71,4.5-2.52,6.48-.92l.15.14a20.66,20.66,0,0,1,3.21,6.37c.24.65.47,1.28.72,1.89q2.37-1.69,4.72-3.41C58.14,6.38,60.07,5,62,3.6c1.88-1.75,4.75-2.57,6.65-.78l.12.11.08.15a100.26,100.26,0,0,1,4.63,10.63c.78,2,1.58,4.07,2.45,6.06l.19.45-.24.43a5.07,5.07,0,0,1-3.08,2.12l-.15.07c-1.73.83-4.1,2-6.28.6l-.12-.08c-1.74-1.47-2.47-3.52-3.18-5.5-.12-.31-.22-.61-.33-.9-5.1,3.53-10.19,7.23-15.14,11Zm-3.9-14.93L43.15,15q1.51,3.71,3,7.44c.42,1,.84,2.09,1.27,3.14,5-3.78,10.09-7.47,15.2-11l1-.68L64.12,15c.31.71.58,1.45.84,2.16.64,1.79,1.25,3.48,2.54,4.6,1.24.72,2.86-.06,4.3-.74l.33-.15A4.44,4.44,0,0,0,73.87,20c-.79-1.85-1.53-3.75-2.25-5.59A99.86,99.86,0,0,0,67.18,4.18c-1.14-.9-3,.07-3.85.92l-.11.1C61.27,6.58,59.33,8,57.39,9.39s-3.83,2.77-5.75,4.14l-1,.7-.51-1.1c-.47-1-.87-2.11-1.26-3.16a19.25,19.25,0,0,0-2.8-5.69c-1.1-.79-2.8-.19-3.77.86l-.14.13L38.27,8.09c-2.58,1.87-5.15,3.74-7.74,5.59l-1,.7-.5-1.1c-1.24-2.7-2.47-5.41-3.7-8.11l-1-2.23c-2.45,1.61-5,3.19-7.41,4.71-4.64,2.9-9.43,5.9-13.85,9.24a2.76,2.76,0,0,0-.28,3.73l.16.22c.51.95,1.73,2.43,3.07,1.93a16.51,16.51,0,0,0,4.72-2.58,32,32,0,0,1,2.91-1.86c2.16-1.4,4.39-2.82,6.62-4.24l.93-.59.5,1c.54,1.06,1,2.16,1.47,3.23a25.2,25.2,0,0,0,3.39,6.23c1.27.83,3-.53,3.71-1.16l.1-.08c1.9-1.35,3.79-2.72,5.69-4.1s3.72-2.7,5.59-4Z" fill="#e7e1b3"/></g></g></g></g></g></svg>