<svg xmlns="http://www.w3.org/2000/svg" viewBox="0 0 76.02 69.29"><g id="e52de429-596f-484f-ba69-84013856a144" data-name="Layer 2"><g id="b5adf895-5d11-4fef-85ce-41cb6b340c3f" data-name="Color"><g id="b52da69c-8e8a-40b1-a789-d7a67c70eb9e" data-name="Vertical_Color"><g id="b1578bf7-51b4-4034-b1e0-3eeacbd4729b" data-name="AstroRing_Color"><g id="f5ff93d2-acf1-46ae-8a1a-d6f6703ce15f" data-name="Aries"><path d="M43.45,69.29h-11l0-1c-.38-11.63-.82-24.8-3.76-37.14-1.62-6.34-3.6-12.92-8.38-17.39-1.66-1.71-4.19-2.91-6.18-1.82-2.64,1.75-3.07,5.65-2.32,8.5l0,.13a7.37,7.37,0,0,0,.78,2.13,6.85,6.85,0,0,1,1,3.84l0,.13C13,28.88,11,30,9.37,30.82L9,31a3.94,3.94,0,0,1-2.9.82,3.72,3.72,0,0,1-2.57-1.43l-.06-.09c-4-6.67-4.63-14.77-1.65-21.14A15.5,15.5,0,0,1,15.52,0h.16A17.29,17.29,0,0,1,26,3.56C31.18,7.66,35,13.62,38,22.18A61.09,61.09,0,0,1,42.2,13c3.27-5.93,7.29-9.9,11.94-11.8A15.2,15.2,0,0,1,70.89,4.51c5,5.07,6.53,13.57,3.74,21.13l0,.1c-.23.47-.42,1-.63,1.53a7.56,7.56,0,0,1-2.56,4c-2,1.33-4.14,0-5.53-.89l-.16-.1c-1.83-.7-3.66-2.22-3.43-4.46l0-.22c.22-.64.46-1.27.71-1.91a17.34,17.34,0,0,0,1.41-5.12c.22-2.72-.73-6-3.36-7-2.55-.61-5,1.74-6.29,3.19-4.95,6.11-7.1,14.12-8.41,20.42-1.92,8.54-2.26,17.44-2.59,26-.09,2.37-.18,4.73-.3,7.09Zm-9.05-2h7.15q.15-3,.25-6.11c.34-8.7.68-17.69,2.63-26.4,1.36-6.5,3.6-14.8,8.84-21.27C56,10.38,58.94,9,61.66,9.69c3.74,1.3,5.08,5.46,4.78,9a18.92,18.92,0,0,1-1.54,5.71c-.22.56-.44,1.13-.64,1.7,0,1.1,1.17,1.93,2.23,2.32l.19.09.26.16c1.37.87,2.48,1.49,3.35.92a6,6,0,0,0,1.8-3,16,16,0,0,1,.68-1.68c2.51-6.84,1.18-14.46-3.3-19A13.19,13.19,0,0,0,54.92,3.07C50.68,4.8,47,8.48,44,14a60.51,60.51,0,0,0-5,11.64l-1,3.07L37,25.64c-2.94-9.71-6.83-16.23-12.26-20.5A15.18,15.18,0,0,0,15.55,2h0A13.45,13.45,0,0,0,3.68,10C1,15.77,1.56,23.12,5.19,29.22a1.72,1.72,0,0,0,1.17.61,2,2,0,0,0,1.48-.43L8,29.29l.42-.23c1.37-.74,2.79-1.5,3.16-2.78a5.27,5.27,0,0,0-.78-2.67,9.08,9.08,0,0,1-1-2.68c-.94-3.63-.3-8.32,3.24-10.66,3-1.64,6.46-.12,8.61,2.1,5.14,4.81,7.23,11.7,8.92,18.34C33.53,42.92,34,55.82,34.4,67.29Z" fill="#e7e1b3"/></g></g></g></g></g></svg>