<svg xmlns="http://www.w3.org/2000/svg" viewBox="0 0 76.01 52.9"><g id="f11c963c-8db1-4fa2-9b8b-e3fd7e117a55" data-name="Layer 2"><g id="a4454591-4bb2-485a-9896-5c08485b2ad4" data-name="Color"><g id="fb4e0ab4-ed2a-444e-ba0b-8dda122b6771" data-name="Vertical_Color"><g id="efddde06-cf3f-48ad-a643-78476239852d" data-name="AstroRing_Color"><g id="b1d6074a-af66-481b-ad41-aa76645a7ab8" data-name="Cancer"><path d="M37.18,52.9c-12,0-23.73-1.61-34.66-3.39a2.35,2.35,0,0,1-1.77-.88,3.82,3.82,0,0,1-.65-2.9c0-.16,0-.32,0-.49a6,6,0,0,1,.63-3.9c1.2-2.24,4-2,4.92-1.93,2.52.27,5.11.55,7.75.81a19.08,19.08,0,0,1-13.17-17c-.43-6.44,3.33-13.1,9.6-16.93C18.51,1.05,28.94.18,38,0h0c12.76-.15,25.35,1.6,36,3.33,2.32.55,2.07,3,1.9,4.24.42,2.44-.59,5.26-3.06,5.85l-.13,0h-.13c-2.21-.05-4.43-.29-6.58-.53-1.18-.13-2.35-.26-3.52-.36l-.72-.06c8,1.59,14.2,9.49,14.16,18,.17,5.45-2.83,10.94-8,14.67-6.77,4.65-15.65,7.16-27.16,7.67C39.54,52.89,38.35,52.9,37.18,52.9ZM4.7,41.37c-1.57,0-2.05.52-2.26.94l-.06.1a4.2,4.2,0,0,0-.32,2.68c0,.21,0,.42,0,.63v.12l0,.11a2,2,0,0,0,.21,1.42.44.44,0,0,0,.34.15h.14c11.91,1.94,24.76,3.69,37.87,3.33C51.76,50.37,60.3,48,66.73,43.55c4.58-3.27,7.34-8.26,7.19-13,0-7.64-5.5-14.68-12.6-16.08a16.33,16.33,0,0,0-3.82-.36c-7.78.23-14.85,6.53-15.76,14.05-.44,5.09,2.28,9.88,4.64,13l1.07,1.41-1.76.19c-13.88,1.5-27.9,0-40.27-1.34Zm16.23-.5a141.42,141.42,0,0,0,22.83.05c-3-4.41-4.37-8.86-4-13,1-8.36,8.7-15.36,17.26-15.83a158.76,158.76,0,0,0-24.9-.31c4.34,6.62,4.75,15.24,1,21.46A16.14,16.14,0,0,1,20.93,40.87ZM38,2C29.24,2.17,19.13,3,10.82,8c-5.63,3.44-9,9.38-8.63,15.11.32,7.82,6.63,14.86,14.06,15.71,6.09,1,12.29-1.65,15.1-6.52,3.45-5.65,3-13.52-1.08-19.61a3.26,3.26,0,0,0-.26-.39,1.61,1.61,0,0,1-.38-1.8,1.45,1.45,0,0,1,1.5-.56c10.74-1,21.46-.19,31.52.69,1.19.1,2.37.23,3.56.36,2.06.23,4.19.46,6.27.52C73.87,11,74.16,9,73.91,7.79l0-.17,0-.17c.21-1.47.13-2-.29-2.15C63.12,3.6,50.6,1.88,38,2ZM56.4,40.19l-.44-.3a5.79,5.79,0,0,1-1.39-1.41,7.31,7.31,0,0,0-.74-.86l-.11-.11c-1.7-2-4.85-5.72-3.86-9.92a8.46,8.46,0,0,1,8.24-6.08A7.75,7.75,0,0,1,64,24.16a6.48,6.48,0,0,1,1.7,5.29c-.52,5.3-5.05,9-8.78,10.54Zm-1.2-4a8.55,8.55,0,0,1,.95,1.08c.18.23.36.46.53.64,3.09-1.44,6.59-4.47,7-8.68a4.55,4.55,0,0,0-1.22-3.72,5.73,5.73,0,0,0-4.36-2H57.8a6.38,6.38,0,0,0-6,4.57C51.11,31,53.18,33.78,55.2,36.17ZM17.38,31.48a10.23,10.23,0,0,1-1.56-.11,6.05,6.05,0,0,1-5-5.26C9.73,20.28,14,15,18.62,13a1.49,1.49,0,0,1,.74-.26l.43,0,.31.29A23.44,23.44,0,0,1,25,19.45c1.76,3.7,1.6,7.13-.43,9.21A10.45,10.45,0,0,1,17.38,31.48ZM19.21,14.9C15.39,16.67,11.9,21,12.78,25.84a4,4,0,0,0,3.36,3.55,8.59,8.59,0,0,0,7-2.15c2.08-2.13.56-5.83,0-6.91A21.14,21.14,0,0,0,19.21,14.9Z" fill="#e7e1b3"/></g></g></g></g></g></svg>