<svg xmlns="http://www.w3.org/2000/svg" viewBox="0 0 76.05 76.28"><g id="b81b3a8c-c54a-4e4b-b76c-a17a509bd8df" data-name="Layer 2"><g id="acd259eb-3e6d-4912-bf5e-1990f9a71050" data-name="Color"><g id="ffb400bb-62c9-45ad-be05-8ddc23e53f7a" data-name="Vertical_Color"><g id="a743c54f-9288-4140-a549-9257c71f997c" data-name="AstroRing_Color"><g id="ac639916-6b6d-45c0-bf91-ebfcb57765e1" data-name="Capricorn"><path d="M26.67,76.28A5.91,5.91,0,0,1,24.93,76c-2.44-.85-2.79-3.54-3-5.32l0-.21a3.68,3.68,0,0,1,2-4.54l.11,0c4.35-1.14,8.19-2.31,11.06-5.1,3.19-3.19,4.76-8.16,4.79-15.19a193.9,193.9,0,0,0-2.2-24.41c-.14-.74-.27-1.54-.41-2.34A29.43,29.43,0,0,0,35.5,12c-3.49,4.78-5.81,10.39-8,15.83-.61,1.48-1.23,3-1.86,4.42.34,3.76.5,7.57.66,11.26L26.36,46l-1.1-.06a40.47,40.47,0,0,0-8.68.54l-1.11.18-.15-3c-.41-8.37-.84-17-4.1-24.73C10.17,16.36,7.79,12,3.67,11.35H3.59C2.53,11.24.05,11,0,8.75v-.2l.07-.18A12.31,12.31,0,0,0,.63,6.05,10.35,10.35,0,0,1,1.81,2.29C3,.18,5.77.2,7.92,1.15c5.67,2,10.54,6.87,13.53,13.51a60.17,60.17,0,0,1,4.81-7.94c2.26-3,5.43-6.58,9.91-6.72h0c4.17-.09,6.75,3.51,7.66,5.07,3.57,6.64,4.6,14.1,5.49,21.37a17.68,17.68,0,0,1,1.82-.85,18.56,18.56,0,0,1,21.73,6.52c4.93,6.76,4,16.9-2,23a18.23,18.23,0,0,1-21.83,3c-.31.91-.63,1.84-1,2.75-2.53,6.32-8.31,11.45-15.84,14-.51.14-1,.29-1.43.45A13.11,13.11,0,0,1,26.67,76.28Zm-2.11-8.44A1.71,1.71,0,0,0,23.81,70l0,.19,0,.3c.24,1.84.51,3.28,1.66,3.68,1.4.42,2.93-.08,4.54-.61.49-.17,1-.33,1.46-.46,6.93-2.39,12.27-7.1,14.59-12.91.42-1,.75-2,1.1-3l.7-2.06,1.08.73C55.21,60,64.35,59.1,69.4,53.77c5.33-5.4,6.14-14.59,1.83-20.51A16.49,16.49,0,0,0,51.9,27.44a14.51,14.51,0,0,0-2.82,1.48l-1.35.91-.28-2.24c-.9-7.37-1.84-15-5.36-21.54-.71-1.2-2.72-4-5.76-4h-.11c-3.61.12-6.36,3.22-8.36,5.91a67.84,67.84,0,0,0-5.62,9.59l-1,2-.8-2.13C17.75,10.27,12.93,5,7.19,3c-1-.44-3-.9-3.66.31A8.72,8.72,0,0,0,2.6,6.39,15.63,15.63,0,0,1,2,8.83c.12.26.63.41,1.76.52l.14,0c4.88.77,7.66,5.19,9.14,8.77,3.39,8,3.83,16.85,4.25,25.4l0,.77a42.7,42.7,0,0,1,6.91-.44l0-.3c-.16-3.74-.33-7.62-.67-11.41l0-.26.11-.23c.66-1.53,1.3-3.08,1.94-4.63,2.4-5.81,4.88-11.82,8.81-16.95a1.39,1.39,0,0,1,1.29-.73c.88.07,1.26,1,1.44,1.4a28.81,28.81,0,0,1,2,7.79c.14.79.27,1.57.41,2.33a195.59,195.59,0,0,1,2.23,24.73c0,7.62-1.8,13-5.38,16.63C33.23,65.36,29,66.67,24.56,67.84ZM58,51.6A9.61,9.61,0,0,1,57,51.53,9.12,9.12,0,0,1,50.12,47a8.6,8.6,0,0,1-.74-7.83,9,9,0,0,1,8.71-5.9,9.18,9.18,0,0,1,6.8,3.29A8.66,8.66,0,0,1,67,43.5a9.27,9.27,0,0,1-3.57,6.16A8.74,8.74,0,0,1,58,51.6Zm-.33-16.32a7.14,7.14,0,0,0-6.45,4.66,6.64,6.64,0,0,0,.59,6,7.14,7.14,0,0,0,5.35,3.56,6.62,6.62,0,0,0,5-1.46A7.25,7.25,0,0,0,65,43.23a6.7,6.7,0,0,0-1.63-5.35,7.15,7.15,0,0,0-5.31-2.59h-.37Z" fill="#e7e1b3"/></g></g></g></g></g></svg>