<svg xmlns="http://www.w3.org/2000/svg" viewBox="0 0 76.02 99"><g id="a5e4873e-5901-4324-8669-5fef6c3bed06" data-name="Layer 2"><g id="b76b7e75-cd81-4e8c-95c1-3e97f5b252bc" data-name="Color"><g id="ea7cf9fa-3a16-40ff-95dd-175386519989" data-name="Vertical_Color"><g id="b0da3f8d-2d04-4368-a9b1-3158dbca7dc0" data-name="AstroRing_Color"><g id="a2ca373c-9197-479a-a89e-da683b2af8a3" data-name="Leo"><path d="M59.53,99c-.75,0-1.5,0-2.24-.1-7.65-.49-13-6.81-15-12.86a37.39,37.39,0,0,1-.74-16.89,21.94,21.94,0,0,1-4.68,6.42c-6,6.07-15.85,7.7-24,3.93-8-3.31-13.33-12-12.9-21a21.81,21.81,0,0,1,15.7-20.32,31.8,31.8,0,0,1-1-10.76C16,12.6,29.9.05,45.12,0h.66C58.69,0,71.23,9.74,74.52,22.45c2.9,11.34-2.86,21.92-6.56,27.22C60.59,59,56.75,67.4,56.19,75.37c-.17,3.29,0,6.56,2.33,8,1.84.72,3.62,0,5.67-.89a16.88,16.88,0,0,1,3.89-1.27c3.48-.17,5.18,3,6.32,5.18,1.63,2.13,2.4,5.19.51,7.33l-.14.13A25.24,25.24,0,0,1,59.53,99ZM44.91,13.4a17.34,17.34,0,0,1,13.33,6.15,15,15,0,0,1,2.49,16,48.84,48.84,0,0,1-6.2,9.91,49.8,49.8,0,0,0-5.7,8.87c-5.67,10.89-7.29,21.94-4.58,31.14,1.65,5.21,6.49,11,13.19,11.46a23.24,23.24,0,0,0,16-4.55c1.23-1.48.15-3.69-.7-4.77l-.1-.15c-1.16-2.21-2.37-4.2-4.25-4.2h-.14A15.35,15.35,0,0,0,65,84.37c-2.17.91-4.64,1.95-7.28.86l-.14-.07c-3.73-2.29-3.47-7.44-3.35-9.92.6-8.39,4.58-17.14,12.17-26.76,3.46-5,8.92-15,6.22-25.53C69.46,10.89,57.41,1.66,45.17,2h0C30.91,2,17.91,13.76,16.76,27.59a30.6,30.6,0,0,0,1.15,11.05l.27,1-1,.22c-8.33,1.76-15,10-15.13,18.67-.38,8.13,4.54,16.16,11.7,19.12,7.31,3.38,16.46,1.89,21.79-3.52,7.2-6.81,8.58-18.52,3.1-26.14a24.82,24.82,0,0,0-3.8-4c-2.24-2-4.55-4.17-5.55-7.35-3.15-8.16.65-18,8.32-21.53A16.44,16.44,0,0,1,44.91,13.4Zm-.08,2a14.41,14.41,0,0,0-6.39,1.45C31.67,20,28.34,28.69,31.14,36c.87,2.73,2.88,4.58,5,6.54a26.44,26.44,0,0,1,4.08,4.36,20.79,20.79,0,0,1,3.65,13.69A59.67,59.67,0,0,1,47,53.43a52.65,52.65,0,0,1,5.89-9.19,47,47,0,0,0,6-9.53,13,13,0,0,0-2.19-13.87A15.51,15.51,0,0,0,44.83,15.44ZM21.77,68.08a7.82,7.82,0,0,1-5-1.75,8.73,8.73,0,0,1-3.43-6.46,8,8,0,0,1,2.36-6.38,8.71,8.71,0,0,1,6.44-2.87h.06a8.46,8.46,0,0,1,7.07,4.13,8.41,8.41,0,0,1,.67,8.2,8.73,8.73,0,0,1-6.05,4.88A9.07,9.07,0,0,1,21.77,68.08ZM22,52.62a6.73,6.73,0,0,0-4.84,2.26,6.07,6.07,0,0,0-1.8,4.86,6.77,6.77,0,0,0,2.66,5,6.13,6.13,0,0,0,5.43,1.13,6.78,6.78,0,0,0,4.71-3.76,6.45,6.45,0,0,0-.55-6.3,6.42,6.42,0,0,0-5.44-3.2H22Z" fill="#e7e1b3"/></g></g></g></g></g></svg>