<svg xmlns="http://www.w3.org/2000/svg" viewBox="0 0 76.06 58.33"><g id="efe822f6-f593-4d6d-8464-37cdbc0a02cd" data-name="Layer 2"><g id="aa8c2f0e-270d-466d-bdde-64327ef93015" data-name="Color"><g id="ef194689-9830-4baf-b0df-b2cf40eba9d2" data-name="Vertical_Color"><g id="f356b348-0977-4b6f-96a1-f49cb865039f" data-name="AstroRing_Color"><g id="fc654e84-e746-4c7f-b052-bc344191dd26" data-name="Libra"><path d="M.74,58.33l0-1c0-.86,0-1.72,0-2.58s0-1.89,0-2.83a3.86,3.86,0,0,1,.38-2.76,2.83,2.83,0,0,1,1.78-1.34l.17,0c9.9-.73,18.65-1.11,26.74-1.17h6c2.53,0,5,.06,7.56.08,10.2.08,20.74.16,31.07,1.35l.89.1v4.69a5.39,5.39,0,0,1-.88,3.89,3.71,3.71,0,0,1-2.55,1.55h-.19c-16.45-.93-30.2-1.23-43.25-1-4.65,0-9.36.25-13.91.5-4.17.22-8.49.45-12.75.49ZM3.25,49.8a.91.91,0,0,0-.47.4,1.87,1.87,0,0,0-.14,1.33l0,.22c0,1,0,2,0,3,0,.51,0,1,0,1.51,3.9-.06,7.85-.27,11.67-.47,4.58-.25,9.32-.5,14-.5,13.06-.28,26.82,0,43.28,1a1.73,1.73,0,0,0,1.11-.73,3.27,3.27,0,0,0,.51-2.44V50c-10-1.08-20.12-1.16-30-1.24-2.51,0-5,0-7.55-.08h-6C21.75,48.69,13.07,49.07,3.25,49.8Zm72.81-2-1.14-.12c-11.76-1.16-23.72-1.4-35-1.54H39l0-1c0-.92,0-1.84,0-2.75,0-1.38,0-2.8,0-4.17a2.83,2.83,0,0,1,3-2.68c3.86-.31,8.65-1.15,11-4.84,2.67-4.25,1.4-9.65-1-13.11-3.42-5-10.39-7.78-17-6.65-6.61.88-12.31,6.25-13.31,12.5A9.33,9.33,0,0,0,25,32.69c2.27,1.83,5.08,2.22,8.05,2.64,1.11.16,2.26.32,3.37.56l.79.17,0,5.66a3.2,3.2,0,0,0,0,1c.09.92.24,2.32-1,3.17l-.24.16h-.29c-11.55.16-21.63.56-30.79,1.23a3.64,3.64,0,0,1-3.08-.67A4.33,4.33,0,0,1,.05,43.23c-.1-1.66-.28-4.87,2.29-6.12L2.57,37a54.6,54.6,0,0,1,9.13-.94L13.08,36a19.21,19.21,0,0,1-2.77-15.11C13.13,9,24.84,0,37.56,0H39c10,.1,19.3,5.56,23.73,13.92a22.2,22.2,0,0,1-.59,22c2,.12,4.09.28,6.09.43,2.16.17,4.39.34,6.58.45l.92.05ZM41,44.11c10.64.13,21.89.38,33,1.42l-.22-6.75c-1.92-.11-3.85-.26-5.72-.4-2.56-.2-5.2-.41-7.8-.51l-1.91-.08,1.15-1.52A20.14,20.14,0,0,0,61,14.89C56.84,7.14,48.2,2.1,38.94,2H37.57C25.94,2,14.82,10.52,12.25,21.38a17,17,0,0,0,3.54,14.88l1.35,1.52-2,.14c-1.1.07-2.21.12-3.32.17A53.51,53.51,0,0,0,3.12,39C2,39.62,1.94,41.41,2,43.18A2.36,2.36,0,0,0,3,45a1.62,1.62,0,0,0,1.43.32l.2,0c9.12-.66,19.14-1.07,30.6-1.23a2.71,2.71,0,0,0,0-1.13,5.42,5.42,0,0,1,0-1.56V37.69c-.79-.14-1.6-.26-2.44-.38-3.11-.44-6.33-.89-9-3a11.32,11.32,0,0,1-4.09-11.22c1.12-7.06,7.56-13.14,15-14.13,7.41-1.27,15,1.74,18.91,7.49,2.82,4,4.25,10.29,1.09,15.32-2.86,4.44-8.24,5.41-12.61,5.77-.06,0-1.12.05-1.12.62C41,39.52,41,41,41,42.38,41,43,41,43.53,41,44.11Z" fill="#e7e1b3"/></g></g></g></g></g></svg>