<svg xmlns="http://www.w3.org/2000/svg" viewBox="0 0 76.96 101.15"><g id="bee3ee73-4336-4df5-9c5b-2a948ff22e15" data-name="Layer 2"><g id="f391d494-49c6-4c2d-bd91-0938f5750861" data-name="Color"><g id="e8886330-7fb5-4742-9354-222c9918719c" data-name="Vertical_Color"><g id="b617bd17-ba29-4a84-b81c-d79be409c0f9" data-name="AstroRing_Color"><g id="e30879ca-4758-473e-a1be-564d3db35c44" data-name="Pisces"><path d="M9.68,101.15l-9.59-9,1.54-1.66C3,89.11,4.32,87.65,5.57,86.17A57.78,57.78,0,0,0,18.22,57.26H3.44V44.67l.88-.1A112.75,112.75,0,0,1,18,43.94l.28,0c0-.17-.06-.36-.08-.5l-.05-.26A57.41,57.41,0,0,0,.79,10L0,9.27l.77-.74C3.82,5.62,6.1,3.7,9.75.73l.69-.56.64.63c10.77,10.67,18.65,27.47,20.24,43l11.7.07a5,5,0,0,1,1.63,0c.21,0,.51.06.74.06v-.11C46.84,28.54,54.17,13.35,66,1.12L67,0l9.63,9.06L76,9.79c-1.37,1.46-2.83,3-4.22,4.64A58,58,0,0,0,58.58,43.94a114.17,114.17,0,0,1,13.9.63l.88.11V57.26H59.68c-.22,0-.48,0-.73,0l-.41,0,.05.2A57.7,57.7,0,0,0,76.16,91.36l.8.74-7.85,7.15a2.32,2.32,0,0,1-1.81,1.27c-1.18,0-2-1-2.59-1.87C53.38,86.21,46.55,71.56,45.41,57.28l-14.08.08c-1.4,15.64-9,31.31-21,43.11ZM47.27,55.27l.06.94c.89,14.14,7.6,28.74,18.89,41.13l.07.09a6.41,6.41,0,0,0,.9,1,1.72,1.72,0,0,0,.28-.38l.19-.23L74,92.09A60,60,0,0,1,56.63,57.84a2,2,0,0,1,0-1.91c.55-.79,1.58-.74,2.4-.69.21,0,.41,0,.6,0h11.7V46.45a127.57,127.57,0,0,0-13.89-.51H56.36l.11-1.1A59.7,59.7,0,0,1,70.23,13.15c1.19-1.4,2.42-2.74,3.61-4L67.15,2.85C55.82,14.66,48.81,29.24,47.4,44a1.78,1.78,0,0,1-.43,1.5,2.89,2.89,0,0,1-2.55.46,4.42,4.42,0,0,0-1,0l-.15,0-13.79-.08-.08-.91c-1.3-15.07-8.77-31.47-19.1-42.06C7.4,5.23,5.36,7,2.92,9.25A59.45,59.45,0,0,1,20.13,42.88l.05.24c.15.85.34,1.92-.42,2.57a2,2,0,0,1-1.91.25,109.29,109.29,0,0,0-12.41.51v8.81h15l-.1,1.1A59.66,59.66,0,0,1,7.11,87.45c-1.3,1.53-2.68,3-4,4.44l-.18.19,6.72,6.29C21.1,86.75,28.29,71.46,29.41,56.29l.07-.92Z" fill="#e7e1b3"/></g></g></g></g></g></svg>