<svg xmlns="http://www.w3.org/2000/svg" viewBox="0 0 76.57 76.28"><g id="bca18db4-a758-47e1-9e72-8b9cacfc38c3" data-name="Layer 2"><g id="a26e1c6e-0062-4fe3-b102-e31f6a175afd" data-name="Color"><g id="b27d7ee8-ab12-409e-9f3f-21dfe32c20b0" data-name="Vertical_Color"><g id="b64ba528-5cbb-478f-bb84-d64db7a456d9" data-name="AstroRing_Color"><g id="b120cdcd-d48e-4f93-8e3d-f2b79d22e7d4" data-name="Sagittarius"><path d="M7.5,76.28,0,68.71,21.36,47.35,8,34l7.5-7.57L28.9,39.81,36,32.71,55.56,13.23c-2.11-.27-4.23-.51-6.35-.76-4.78-.55-9.72-1.12-14.56-1.9l-.42-.06L34,10.16c-1.27-1.83-1-3.93-.69-5.78.06-.38.11-.76.15-1.12A3.6,3.6,0,0,1,34.26.6,2.11,2.11,0,0,1,35.8,0h.71l0,.09h0c6.64,1,13.43,1.8,20,2.55,4.76.55,9.67,1.11,14.5,1.77l.76.1.1.76c.68,5.08,1.27,10.26,1.85,15.26.79,6.89,1.61,14,2.65,21l.15,1-6.18.63-.49.08c-1.19.21-3.19.55-4.09-1.29l-.09-.28c-.75-4.86-1.33-9.82-1.88-14.62-.25-2.11-.49-4.23-.75-6.34C53.45,30.31,44.73,39,36.51,47.38c2.67,2.73,5.41,5.46,8.07,8.11l4.61,4.61.7.71-7.56,7.5L28.9,54.89ZM2.82,68.72l4.69,4.73L28.89,52.07l.72.7L42.33,65.49l4.73-4.69c-1.3-1.3-2.6-2.59-3.89-3.89-2.89-2.88-5.88-5.86-8.78-8.84l-.68-.7.69-.7c8.83-9,18.23-18.37,28.72-28.77l1.44-1.42.26,2c.36,2.79.68,5.59,1,8.38.54,4.72,1.1,9.6,1.84,14.35.22.3.68.31,1.89.1l.6-.09,4.13-.43c-1-6.66-1.75-13.44-2.51-20C71.23,16,70.67,11.13,70,6.31c-4.57-.61-9.21-1.14-13.71-1.66-6.6-.76-13.44-1.54-20.13-2.57l-.11,0-.3,0h-.11s-.25.36-.24,1.27v.13c0,.41-.11.83-.17,1.26-.21,1.47-.42,2.87.15,4,4.65.74,9.41,1.29,14,1.82,2.8.32,5.61.64,8.41,1l2,.26L58.42,13.2l-21,20.93L28.9,42.64,15.54,29.28,10.85,34,24.19,47.35Z" fill="#e7e1b3"/></g></g></g></g></g></svg>