<svg xmlns="http://www.w3.org/2000/svg" viewBox="0 0 76.14 84.3"><g id="a06af3d3-f683-46fe-b85d-e1f6db9a1e91" data-name="Layer 2"><g id="b9311d3f-096c-4fa3-91d2-0146f994a814" data-name="Color"><g id="fb5687d7-0cf2-40cd-8ba2-989a3079f9be" data-name="Vertical_Color"><g id="f951a06a-fb37-4e85-a27e-d1890cd633f1" data-name="AstroRing_Color"><g id="b2a43980-f59e-46f1-ab79-293e64688174" data-name="Scorpio"><path d="M59.69,84.3V77.6a28,28,0,0,1-6.27-1.36,12.74,12.74,0,0,1-8.2-8.62c-1.47-5.6-1.45-11.38-1.43-17,0-1.18,0-2.36,0-3.54,0-1.87-.09-3.76-.12-5.66a190,190,0,0,0-1.49-24.13c-1.64,3.18-3.08,6.5-4.48,9.74q-.86,2-1.74,4c.51,10.06.77,20.86.79,33v1H24.89V62.49c0-7.31,0-14.88-.19-22.31-.06-1.34-.11-2.69-.16-4a158.32,158.32,0,0,0-1.43-18.5c-1.54,3.11-2.94,6.32-4.31,9.45-.56,1.29-1.12,2.58-1.69,3.86.24,12.68.34,23.21.33,33.12v1H5.67v-1c0-3.71-.07-7.42-.09-11.12,0-5.7-.07-11.59-.2-17.38,0-1.33-.09-2.68-.14-4A121.79,121.79,0,0,0,4.11,16.08c-.07-.29-.14-.65-.21-1a14.43,14.43,0,0,0-.7-2.63A4.16,4.16,0,0,1,.41,9.63,12.76,12.76,0,0,1,.13,5.76V5.27c0-.19,0-.51-.05-.9a11.31,11.31,0,0,1,0-2.95h0A1.62,1.62,0,0,1,.44.7C1.48-.51,3.71,0,7,1.18l.41.14c4,1.45,6,5.16,7.11,8.21A27,27,0,0,1,18,4.76,8.36,8.36,0,0,1,28.2,2.3c2.91,1.76,4.19,4.89,4.93,7.68a28.73,28.73,0,0,1,4.5-6.05c1.83-2.2,5.4-4,8.74-2.49C49.81,3.23,51.23,7.11,52,9.88c2.74,11.2,3,22.84,3.34,34.09l.06,2.19c.11,1.77.13,3.6.15,5.37.05,4.07.1,8.28,1.23,12.22.22,1.07,1.19,1.7,3,2l.2-5.66,1.46.89c1.63,1,3.28,2,4.93,2.93,2.25,1.32,4.57,2.68,6.81,4.1A5,5,0,0,1,76,71.23a3.66,3.66,0,0,1-.66,3.34l-.18.17a83.12,83.12,0,0,1-8.47,5.32c-1.81,1-3.69,2.11-5.46,3.25ZM43.18,11.4l.49,2.7c1.65,9,1.83,18.33,2,27.32,0,1.89.07,3.77.12,5.66,0,1.2,0,2.39,0,3.58,0,5.46,0,11.11,1.35,16.42a10.79,10.79,0,0,0,6.91,7.27,28.77,28.77,0,0,0,6.75,1.36l.89.1v4.86c1.33-.81,2.69-1.59,4-2.35a81,81,0,0,0,8.15-5.1,1.77,1.77,0,0,0,.22-1.48,3,3,0,0,0-1.67-1.91l-.17-.09C70,68.32,67.66,67,65.4,65.63c-1.17-.69-2.34-1.37-3.5-2.07l-.16,4.38-1-.09c-1.29-.1-5.21-.42-5.86-3.63-1.19-4.12-1.24-8.47-1.29-12.67,0-1.75,0-3.55-.15-5.3L53.34,44c-.29-11.15-.59-22.67-3.27-33.63C49.4,8,48.2,4.64,45.5,3.25c-2.23-1-4.92.27-6.4,2a33.67,33.67,0,0,0-5.49,7.92l-1.3,2.37-.56-2.64C31,9.22,30,5.74,27.22,4c-2.64-1.39-6-.06-7.68,2a30.77,30.77,0,0,0-4.48,6.45l-1.25,2.25-.6-2.5c-.65-2.74-2.36-7.56-6.51-9.07l-.43-.16C3.4,2,2.38,1.94,2,2a15.39,15.39,0,0,0,.07,2.21c0,.47.06.87.05,1.1v.5a10.78,10.78,0,0,0,.21,3.25A2.1,2.1,0,0,0,4,10.57l.53.07.24.48a14,14,0,0,1,1.06,3.55l.21,1A124.92,124.92,0,0,1,7.23,31.48c0,1.35.09,2.7.14,4,.13,5.82.17,11.72.2,17.43,0,3.37,0,6.74.08,10.11h7.79c0-9.67-.1-20-.33-32.3v-.22l.09-.21c.6-1.34,1.19-2.69,1.78-4,1.76-4.06,3.59-8.25,5.73-12.21L24,11.64l.54,2.72c1.43,7.18,1.71,14.56,2,21.7.05,1.35.1,2.7.16,4,.2,7.47.2,15,.19,22.38v.57h7.86c0-11.8-.3-22.33-.8-32.15v-.24l.1-.22c.62-1.39,1.22-2.79,1.83-4.19a122.49,122.49,0,0,1,6-12.48ZM1.07,1.64l1,.23v0Z" fill="#e7e1b3"/></g></g></g></g></g></svg>