<svg xmlns="http://www.w3.org/2000/svg" viewBox="0 0 76.51 82.2"><g id="a92a2cc9-3938-4ef3-b1f0-37f4978332f5" data-name="Layer 2"><g id="ba8d8dc5-32fe-438e-a0fc-b2c6624f6471" data-name="Color"><g id="e1b1f001-39d8-42f0-a33b-53daf5a3ec38" data-name="Vertical_Color"><g id="b94e9d3c-25dd-4b6a-8861-1aac470178e3" data-name="AstroRing_Color"><g id="a0f44c84-9733-4654-b487-75858e5fc7c6" data-name="Taurus"><path d="M76.23,8.58c.07,1.33.17,3.55-1.91,4.31l-.17.06H74a7.62,7.62,0,0,0-4.79,1.24c-3.3,2.75-5.73,6.25-8.3,10a65.65,65.65,0,0,1-6.3,8.14,26,26,0,0,1,7.18,7.58c6.47,10.4,4.59,25.1-4.37,34.19a26.08,26.08,0,0,1-19,7.89,27.57,27.57,0,0,1-8.63-1.38c-9.46-2.84-16.89-11.66-18.46-22A27.07,27.07,0,0,1,22,32.31,66.8,66.8,0,0,1,15.53,24a56.72,56.72,0,0,0-7.28-9.08l-.1-.11C6.69,12.89,4,12.94,1.39,13.16L.3,13.25V9.09c0-1.1,0-2.21,0-3.32l0-.23a5.38,5.38,0,0,0,0-1.32C.19,3,0,.83,2.21.28l.14,0H2.5c4.34.26,8.84.89,12.34,3.68C19.06,7,22,11.27,24.9,15.4a57.44,57.44,0,0,0,7.16,9,8.74,8.74,0,0,0,11,1.18c3.45-2.79,6.1-6.58,8.66-10.25,2.78-4,5.65-8.1,9.68-11.16C65.57.53,71.26.2,75.3.58l.91.08V7.87C76.21,8.09,76.22,8.33,76.23,8.58ZM73.77,11c.48-.27.53-.93.46-2.27,0-.29,0-.56,0-.81V2.5c-3.55-.21-8.15.25-11.49,3.18-3.84,2.91-6.62,6.9-9.31,10.75s-5.37,7.7-9.1,10.7a10.77,10.77,0,0,1-13.65-1.34,59.64,59.64,0,0,1-7.41-9.25c-2.9-4.18-5.64-8.12-9.62-11C10.42,3,6.25,2.49,2.56,2.26c-.31.12-.39.4-.25,1.76a6.51,6.51,0,0,1,0,1.87c0,1.06,0,2.13,0,3.2v2c2.31-.13,5.44,0,7.37,2.38a58.73,58.73,0,0,1,7.49,9.35,58.38,58.38,0,0,0,7.12,8.93l.92.89-1.08.68a24.92,24.92,0,0,0-10.86,25C14.72,67.86,21.59,76,30.35,78.66c9.14,3,19.41.61,25.58-6,8.22-8.33,10-22.27,4.11-31.75a24.2,24.2,0,0,0-7.57-7.64l-1.06-.68.91-.88A58.12,58.12,0,0,0,59.23,23c2.53-3.66,5.15-7.43,8.7-10.38A9.38,9.38,0,0,1,73.72,11Z" fill="#e7e1b3"/><path d="M51.16,43.79A16.2,16.2,0,0,1,54.92,57,17.21,17.21,0,0,1,38.43,71.39,12.23,12.23,0,0,1,37,71.31c-7.62-.64-14.34-7-15.29-14.4a16.73,16.73,0,0,1,8.26-17,17.19,17.19,0,0,1,8.83-2.28A16.38,16.38,0,0,1,51.16,43.79ZM53,56.69a14.25,14.25,0,0,0-3.32-11.62,14.37,14.37,0,0,0-10.89-5.43h-.28a15.23,15.23,0,0,0-7.57,2,14.7,14.7,0,0,0-7.25,15,15.19,15.19,0,0,0,13.5,12.69C44.53,70.08,51.92,64.18,53,56.69Z" fill="#e7e1b3"/></g></g></g></g></g></svg>