<svg xmlns="http://www.w3.org/2000/svg" viewBox="0 0 76.01 92.26"><g id="fa19ab81-df10-46ce-9d54-12755c239eb8" data-name="Layer 2"><g id="bbe0e471-f459-4dfa-bc95-990c144a93be" data-name="Color"><g id="b8a4d9b6-c132-452f-abbd-dfad2b73b702" data-name="Vertical_Color"><g id="b1dce901-8006-4466-ab6e-2331695bcac4" data-name="AstroRing_Color"><g id="ace1e146-65b9-4e2e-b580-2c97edcc3f24" data-name="Virgo"><path d="M57.61,92.26a3.67,3.67,0,0,1-.66-.05l-.22-.06a19.39,19.39,0,0,1-8.86-7.89l-.48.21c-1.27.55-2.59,1.12-3.93,1.63a18.37,18.37,0,0,0-1.76.62c-2,.77-4.22,1.64-6.45.36L35.13,87c-2-1.57-2.44-3.92-2.85-6a14.58,14.58,0,0,0-.82-3l-.45-1,2.58-.82a60.26,60.26,0,0,0,11-4.34c-.12-5.2-.17-10.47-.21-15.57l-.09-8.31c-.06-2.07-.1-4.16-.15-6.24C44,34.36,43.86,26.85,43,19.5c-1.47,3.37-2.81,6.82-4.12,10.18-.55,1.43-1.11,2.86-1.67,4.29.47,11.37.63,22.93.78,34.11L38.06,73H25.42V72c0-2.64-.08-5.29-.11-7.93-.06-4.85-.12-9.7-.22-14.55-.08-2.32-.14-4.65-.21-7-.19-7.46-.4-15.13-1.31-22.67-1.44,3.39-2.77,6.84-4.07,10.2-.47,1.23-.95,2.46-1.43,3.69l.32,39.2-1,0c-1.26,0-2.53,0-3.8,0s-2.79,0-4.16,0a3.42,3.42,0,0,1-3.07-.78,2.63,2.63,0,0,1-.82-2.44c.14-15.4.19-29.29-.64-43.2-.13-1.22-.21-2.52-.3-3.77-.25-3.74-.48-7.27-1.91-10.55C.92,11.16,0,9,0,6a6.34,6.34,0,0,1,1.5-4.65A4.21,4.21,0,0,1,4.59,0,8.69,8.69,0,0,1,7.31.39C10.77,1.53,13.4,4.56,15,9.21a27.78,27.78,0,0,1,3.07-4.38c2.1-2.86,6.23-5,10-3.45,3.33,1.68,5,5,6,8.31,1.71-3,3.72-6.11,6.95-7.86,3.21-2.15,7.61-.59,9.65,2.26,3.48,5.43,4.24,11.77,4.91,18,.28-.22.58-.42.87-.61a11.1,11.1,0,0,1,12.27-.57c3.66,2.45,6.06,7,7,13,2,15.63-4.64,32.59-17,43.45,1.11,2.13,3.28,3.6,5.38,5l.75.5,0,.51a5.46,5.46,0,0,1-1.21,3.25,9.69,9.69,0,0,0-.56.91C61.84,90.52,59.84,92.26,57.61,92.26Zm-.25-2c2.15.22,3.49-2.64,3.86-3.54a11.06,11.06,0,0,1,.7-1.19,5.27,5.27,0,0,0,.84-1.6c-2.4-1.62-5.08-3.47-6.26-6.46l-.27-.67.55-.46C69,65.92,75.64,49.37,73.67,34.17c-.57-3.82-2.09-9-6.08-11.63a9.21,9.21,0,0,0-10.06.55,17.1,17.1,0,0,0-2.12,1.63L54,26l-.34-3.2C53,16.7,52.28,10.37,49,5.21c-1.44-2-4.67-3.21-7-1.67-3.19,1.73-5.12,5.15-6.83,8.18L33.29,15l-.57-2.47c-.85-3.68-2.17-7.66-5.51-9.35-2.71-1.12-5.87.59-7.56,2.89a32,32,0,0,0-4,6.17L14.4,14.56,13.76,12C12.85,8.35,10.88,3.67,6.7,2.3A6.51,6.51,0,0,0,4.6,2h0A2,2,0,0,0,3,2.71,4.29,4.29,0,0,0,2,5.86V6c0,1.37.19,3.79,1.9,4.65l.31.16.15.32c1.7,3.7,2,7.69,2.23,11.54.08,1.24.17,2.51.3,3.75.83,14,.78,28,.64,43.48l0,.21a.62.62,0,0,0,.21.64A1.36,1.36,0,0,0,9,71l.26,0c1.46,0,2.94,0,4.37,0h2.75l-.31-37.61.07-.18,1.5-3.86c1.72-4.47,3.51-9.09,5.54-13.53l1.39-3.05.5,3.31c1.35,8.76,1.58,17.73,1.81,26.41.07,2.32.13,4.65.21,7,.1,4.86.16,9.72.22,14.57l.09,7H36l0-2.87c-.15-11.23-.31-22.85-.79-34.26v-.21l.08-.2Q36.16,31.2,37,29c1.73-4.46,3.52-9.07,5.6-13.47l1.41-3,.49,3.25C45.8,24.32,46,33.11,46.16,41.61c.05,2.08.09,4.16.15,6.23q0,4.19.09,8.34c0,5.29.1,10.76.23,16.14v.59l-.51.29A57.53,57.53,0,0,1,34.2,78l-.53.17a23.11,23.11,0,0,1,.57,2.43c.38,1.88.73,3.65,2.08,4.77,1.38.75,3,.13,4.66-.53.61-.23,1.24-.48,1.86-.65,1.21-.46,2.5-1,3.75-1.57l2.1-.9.44.76C50.68,85.13,53.36,88.61,57.36,90.25ZM55.2,66.12l-.05-3c-.08-4.9-.12-9.81-.16-14.71,0-2.48,0-4.95-.07-7.43v-.26l.13-.24c.37-.67.74-1.35,1.1-2,1.55-2.94,3.16-6,6.05-8l.84-.59.57.86c1.35,2.09,1.53,4.6,1.7,6.81,0,.36,0,.72.08,1.07C65.6,47,62.61,55.89,57,63.69Zm1.72-24.89q0,3.59.07,7.16c0,3.84.06,7.68.11,11.52A38.71,38.71,0,0,0,63.4,38.7c0-.3-.06-.67-.09-1a15.69,15.69,0,0,0-.87-4.89c-2,1.74-3.26,4.21-4.52,6.6C57.59,40,57.26,40.62,56.92,41.23Z" fill="#e7e1b3"/></g></g></g></g></g></svg>