<svg xmlns="http://www.w3.org/2000/svg" viewBox="0 0 1299.34 273.06"><g id="e9f38b3e-ac34-4d25-9d90-e0d1a8865628" data-name="Layer 2"><g id="f9f7f809-6b67-42f8-903f-ef206b45db42" data-name="Color"><g id="a4669604-fee4-4a2b-8d6f-8e790ce9d902" data-name="Horizontal_Color"><g id="bf1b4dcd-2b85-478e-952f-ba00c2078850" data-name="Spotify Logo"><path d="M136.53,272.56A136,136,0,0,1,40.34,40.34,136,136,0,1,1,232.71,232.71,135.1,135.1,0,0,1,136.53,272.56Zm0-270.71C62.27,1.85,1.85,62.27,1.85,136.53S62.27,271.2,136.53,271.2,271.2,210.79,271.2,136.53,210.79,1.85,136.53,1.85Z" fill="#e7e1b3" stroke="#e7e1b3" stroke-miterlimit="10"/><path d="M214.41,124.48a11.57,11.57,0,0,1-5.78-1.61c-18.77-10.83-40.3-17.26-67.75-20.25a215.54,215.54,0,0,0-54.5.55c-7.06,1-14.17,2.67-21,4.28l-3.38.79a12.68,12.68,0,0,1-14.85-7.32,12.36,12.36,0,0,1,5.62-15.54,29,29,0,0,1,5.68-2l.4-.11a199.08,199.08,0,0,1,44.63-6.56c2.81-.11,5.67-.08,8.43,0l3.85,0h.72c29.58,0,55.69,4.27,79.81,13.07a137,137,0,0,1,24.53,11.55,12.45,12.45,0,0,1,6.07,10.3,12.8,12.8,0,0,1-12.44,12.84ZM115.07,99.81a240.31,240.31,0,0,1,26,1.46c27.64,3,49.33,9.5,68.28,20.42,3.7,2.14,7.63,1.9,11.38-.68a10.78,10.78,0,0,0,4.8-9.34,11.11,11.11,0,0,0-5.41-9.18,136.07,136.07,0,0,0-24.29-11.43c-24.17-8.81-50.36-13.06-80.07-13h0l-3.86,0c-2.75,0-5.59-.06-8.36,0a198.31,198.31,0,0,0-44.34,6.52l-.39.11a27.31,27.31,0,0,0-5.42,1.87,11,11,0,0,0-5,13.82,11.33,11.33,0,0,0,13.28,6.52l3.38-.79c6.9-1.62,14-3.3,21.16-4.31A203.17,203.17,0,0,1,115.07,99.81Z" fill="#e7e1b3" stroke="#e7e1b3" stroke-miterlimit="10"/><path d="M198.82,163.05a11.17,11.17,0,0,1-5.76-1.64c-15.76-9.47-33.62-15.59-54.59-18.73a166.4,166.4,0,0,0-49.55-.23c-6.93,1.05-14,2.81-20.16,4.36s-12-1.35-13.64-6.93c-1.7-5.8,1.56-11.34,7.75-13.18a173.8,173.8,0,0,1,42.93-6.83c1.62-.05,3.26,0,4.84,0h2.22c28.72.11,54.13,5.53,77.69,16.56,4.74,2.22,9.31,4.83,13.21,7.1a10.68,10.68,0,0,1,5.12,6.62,10.47,10.47,0,0,1-10.06,12.91Zm-86.36-23.7a176.61,176.61,0,0,1,26.21,2c21.15,3.16,39.17,9.35,55.08,18.91a9.1,9.1,0,0,0,12.75-3,8.8,8.8,0,0,0,1.07-6.82,9.39,9.39,0,0,0-4.48-5.78c-3.89-2.25-8.43-4.84-13.11-7-23.38-11-48.61-16.33-77.12-16.43h0l-2.23,0c-1.57,0-3.19,0-4.78,0A172.15,172.15,0,0,0,63.25,128c-5.44,1.61-8.31,6.45-6.83,11.5s6.39,7.4,12,6c6.23-1.56,13.3-3.33,20.28-4.39A158.82,158.82,0,0,1,112.46,139.35Z" fill="#e7e1b3" stroke="#e7e1b3" stroke-miterlimit="10"/><path d="M185.06,196.39a9.21,9.21,0,0,1-4.77-1.37c-15.82-9.54-33.17-15-53-16.66-17.4-1.47-35.77,0-56.17,4.61-3.75.84-6.66.05-8.91-2.43A8,8,0,0,1,60.47,172a7.63,7.63,0,0,1,5.89-5.31l3-.54c8.1-1.49,16.48-3,24.79-4.14,4.63-.62,9.37-.86,14-1.1,2-.1,4.15-.21,6.21-.35h.06c23.73.3,44.3,4.75,62.89,13.63,4.27,2,8.35,4.34,11.79,6.33a8.79,8.79,0,0,1,4.23,5.37,8.55,8.55,0,0,1-8.18,10.52Zm-70.8-19.93q6.66,0,13.12.55c19.79,1.66,37.83,7.33,53.61,16.85a7.07,7.07,0,0,0,10.07-2.27,7,7,0,0,0,.87-5.38,7.48,7.48,0,0,0-3.6-4.54c-3.41-2-7.47-4.26-11.7-6.28-18.4-8.78-38.77-13.2-62.29-13.5-2.07.14-4.17.25-6.21.36-4.56.23-9.28.47-13.85,1.08-8.28,1.1-16.64,2.64-24.73,4.13l-3,.54a6.37,6.37,0,0,0-4.86,4.43,6.72,6.72,0,0,0,1.44,7.2c1.9,2.08,4.39,2.74,7.61,2A198.47,198.47,0,0,1,114.26,176.46Z" fill="#e7e1b3" stroke="#e7e1b3" stroke-miterlimit="10"/></g><g id="a9c35e92-bb4b-408b-845b-928c0f8ad91a" data-name="Wordmark"><g id="e8e5544e-afa6-4c0c-b98d-90d933265441" data-name="Design"><path d="M1029.43,108.38a68.23,68.23,0,0,0-37.35-37.53,74.75,74.75,0,0,0-55.54,0,68.28,68.28,0,0,0-37.33,37.53,75.74,75.74,0,0,0,0,55.82,68.25,68.25,0,0,0,37.33,37.54,74.88,74.88,0,0,0,55.54,0,68.2,68.2,0,0,0,37.35-37.54,75.87,75.87,0,0,0,0-55.82Zm-62.44,92a73.09,73.09,0,0,1-26.86-4.73,66.52,66.52,0,0,1-21.74-13.47A63,63,0,0,1,918,90.73a66.64,66.64,0,0,1,21.63-13.67,73.65,73.65,0,0,1,26.82-5A76,76,0,0,1,983.81,74a67.89,67.89,0,0,0-9.5,3,66.28,66.28,0,0,0-21.63,13.66,63,63,0,0,0,.38,91.48,66.49,66.49,0,0,0,21.75,13.48,71.27,71.27,0,0,0,9.52,2.9A77,77,0,0,1,967,200.42Z" fill="#e7e1b3"/></g><g id="e5b37b25-1e99-4369-bcd1-1d17fe4eb5ee" data-name="Text"><path d="M330.31,204.84,382.52,69h12l52.21,135.86H432.59l-24.06-63.66H364.47l-20,63.66ZM383.88,79.07l-18.05,57.45h40.95L385,79.07Z" fill="#e7e1b3"/><path d="M485.77,200.57l1.16-11.65h1.17a57.26,57.26,0,0,0,17.08,10.29A51.7,51.7,0,0,0,524,202.9q13.2,0,21.35-7.28t8.15-19.51a27,27,0,0,0-3-12.61,41.71,41.71,0,0,0-9.89-11.84,123.22,123.22,0,0,0-18.93-13q-8.34-4.86-15.91-10.19a49.18,49.18,0,0,1-12.42-12.42,29.32,29.32,0,0,1-4.85-17q0-14.75,10.67-23.77t28.14-9A92.92,92.92,0,0,1,544,67.91q8.93,1.66,13.78,4.18L556.8,83h-1.16q-11.07-12-28.34-12-12.42,0-20,6.31t-7.57,17a22.57,22.57,0,0,0,4.18,13.69,44.37,44.37,0,0,0,10.77,10.28q6.59,4.56,14.16,8.83,8.74,5.05,17,10.68a50.94,50.94,0,0,1,13.58,13.48q5.34,7.86,5.34,19.7a35.84,35.84,0,0,1-5,19.12,34.58,34.58,0,0,1-14.26,12.91A47.06,47.06,0,0,1,524,207.55a101.5,101.5,0,0,1-18.24-1.94A154.92,154.92,0,0,1,485.77,200.57Z" fill="#e7e1b3"/><path d="M649.57,204.84v-132q-2.91,0-12,1.17l-38,4.85V69H712.84v9.9L674.8,74q-9.12-1.17-12-1.17v132Z" fill="#e7e1b3"/><path d="M763.69,69h26q20.56,0,31.92,8.64T833,101.78q0,12-7.09,20t-20.47,10.68v1.16a36,36,0,0,1,21,12,62.31,62.31,0,0,1,12.22,23.49A118.17,118.17,0,0,0,845.88,189q3.58,7.08,8,10.19a28.44,28.44,0,0,0,10.38,4.46v1.17h-8q-8.53,0-14.07-3.11t-9.41-10.48q-3.88-7.37-7.37-20.38-5.64-20-14.95-28.33t-22.71-8.35h-1.16V130.7h1.16Q819,130.7,819,102q0-28.33-29.3-28.34H776.89v131.2h-13.2Z" fill="#e7e1b3"/><path d="M1095.56,204.84V69h57.06v9.51L1120.4,74a110.15,110.15,0,0,0-11.64-1.17v60.75q3.1,0,12-.58l29.7-1.94V140l-29.7-2q-8.93-.57-12-.58v67.35Z" fill="#e7e1b3"/><path d="M1239,204.84V147.39L1190.85,69h14.75l43.28,71h1.17l34.54-71h14.75L1253,144.67v60.17Z" fill="#e7e1b3"/></g></g></g></g></g></svg>